<?xml version="1.0" encoding="utf-8"?>
<!-- Generator: Adobe Illustrator 26.0.3, SVG Export Plug-In . SVG Version: 6.00 Build 0)  -->
<svg version="1.1" id="Layer_1" xmlns="http://www.w3.org/2000/svg" xmlns:xlink="http://www.w3.org/1999/xlink" x="0px" y="0px"
	 viewBox="0 0 360 360" style="enable-background:new 0 0 360 360;" xml:space="preserve">
<style type="text/css">
	.st0{fill:none;}
</style>
<g>
	<path class="st0" d="M180,7.41C84.86,7.41,7.47,84.81,7.47,179.94c0,95.14,77.4,172.53,172.53,172.53
		c95.13,0,172.53-77.4,172.53-172.53C352.53,84.81,275.13,7.41,180,7.41z M228.98,94.74c9.38,0,16.46,14.33,16.46,33.34
		s-7.08,33.34-16.46,33.34s-16.46-14.33-16.46-33.34S219.6,94.74,228.98,94.74z M131.02,94.74c9.38,0,16.46,14.33,16.46,33.34
		s-7.08,33.34-16.46,33.34c-9.38,0-16.46-14.33-16.46-33.34S121.64,94.74,131.02,94.74z M310.24,210.33
		c-2.02,0.2-3.95,0.29-5.78,0.29c-2.11,0-4.08-0.13-5.93-0.34c-1.13,4.37-7.06,25.19-22.75,46.2
		c-16.06,21.52-45.72,47.17-95.78,47.17c-50.06,0-79.71-25.65-95.78-47.17c-15.69-21.01-21.62-41.83-22.75-46.2
		c-1.85,0.21-3.82,0.34-5.93,0.34c-1.83,0-3.76-0.09-5.78-0.29c-3.02-0.3-5.23-3-4.92-6.02c0.3-3.02,3-5.22,6.02-4.92
		c14.46,1.46,22.34-4.16,22.41-4.22c2.42-1.83,5.87-1.36,7.71,1.06c1.83,2.42,1.36,5.87-1.06,7.71c-0.22,0.17-2.88,2.13-7.72,3.88
		c1.11,4.15,6.81,23.43,21.07,42.41c21.16,28.16,50.34,42.44,86.73,42.44s65.57-14.28,86.73-42.44
		c14.26-18.98,19.96-38.27,21.07-42.41c-4.83-1.76-7.5-3.72-7.72-3.88c-2.42-1.83-2.89-5.29-1.06-7.71
		c1.83-2.41,5.25-2.89,7.67-1.09c0.41,0.3,8.14,5.7,22.45,4.25c3.01-0.31,5.72,1.9,6.02,4.92
		C315.46,207.33,313.26,210.03,310.24,210.33z"/>
	<path d="M180,0.41C81,0.41,0.47,80.95,0.47,179.94S81,359.47,180,359.47s179.53-80.54,179.53-179.53S279,0.41,180,0.41z
		 M180,352.47c-95.14,0-172.53-77.4-172.53-172.53C7.47,84.81,84.86,7.41,180,7.41c95.13,0,172.53,77.4,172.53,172.53
		C352.53,275.08,275.13,352.47,180,352.47z"/>
	<path d="M131.02,161.41c9.38,0,16.46-14.33,16.46-33.34s-7.08-33.34-16.46-33.34c-9.38,0-16.46,14.33-16.46,33.34
		S121.64,161.41,131.02,161.41z"/>
	<path d="M228.98,161.41c9.38,0,16.46-14.33,16.46-33.34s-7.08-33.34-16.46-33.34s-16.46,14.33-16.46,33.34
		S219.6,161.41,228.98,161.41z"/>
	<path d="M315.16,204.31c-0.31-3.02-3.02-5.23-6.02-4.92c-14.31,1.45-22.04-3.95-22.45-4.25c-2.42-1.8-5.84-1.32-7.67,1.09
		c-1.83,2.42-1.36,5.87,1.06,7.71c0.22,0.17,2.88,2.13,7.72,3.88c-1.11,4.15-6.81,23.43-21.07,42.41
		c-21.16,28.16-50.34,42.44-86.73,42.44s-65.56-14.28-86.73-42.44c-14.26-18.98-19.96-38.27-21.07-42.41
		c4.83-1.76,7.5-3.72,7.72-3.88c2.42-1.83,2.9-5.29,1.06-7.71c-1.83-2.42-5.29-2.89-7.71-1.06c-0.08,0.06-7.95,5.68-22.41,4.22
		c-3.03-0.3-5.72,1.9-6.02,4.92c-0.3,3.02,1.9,5.72,4.92,6.02c2.02,0.2,3.95,0.29,5.78,0.29c2.11,0,4.08-0.13,5.93-0.34
		c1.13,4.37,7.06,25.19,22.75,46.2c16.06,21.52,45.72,47.17,95.78,47.17c50.06,0,79.71-25.65,95.78-47.17
		c15.69-21.01,21.62-41.83,22.75-46.2c1.85,0.21,3.82,0.34,5.93,0.34c1.83,0,3.76-0.09,5.78-0.29
		C313.26,210.03,315.46,207.33,315.16,204.31z"/>
</g>
</svg>
